# xmcd CD database file
#
# Track frame offsets:
#	150
#	15031
#	27604
#	40748
#	56026
#	67757
#	81742
#	95830
#	109949
#	121317
#	135741
#	150326
#	164093
#	178659
#	193080
#	206440
#	220442
#	233642
#	244844
#	258284
#	273532
#	275402
#	287971
#	302414
#	317143
#	330119
#
# Disc length: 4466 seconds
#
# Revision: 0
# Processed by: cddbd v1.5PL3 Copyright (c) Steve Scherf et al.
# Submitted via: CDex 1.51
#
DISCID=7a11701a
DTITLE=Billie Holiday - Complete Original American Decca Recordings [CD1]
DYEAR=2001
DGENRE=Jazz
TTITLE0=Lover Man (Oh, Where Can You Be)?
TTITLE1=No More
TTITLE2=That Old Devil Called Love
TTITLE3=Don't Explain
TTITLE4=You Better Go Now
TTITLE5=What Is This Thing Called Love?
TTITLE6=Good Morning Heartache
TTITLE7=No Good Man
TTITLE8=Big Stuff
TTITLE9=Baby, I Don't Cry Over You
TTITLE10=I'll Look Around
TTITLE11=The Blues Are Brewin'
TTITLE12=Guilty
TTITLE13=Deep Song
TTITLE14=There Is No Greater Love
TTITLE15=No More
TTITLE16=Don't Explain
TTITLE17=Big Stuff
TTITLE18=Big Stuff
TTITLE19=No Good Man
TTITLE20=Big Stuff
TTITLE21=Big Stuff
TTITLE22=Baby, I Don't Cry Over You
TTITLE23=I'll Look Around
TTITLE24=Guilty
TTITLE25=Guilty
EXTD=YEAR: 2001
EXTT0=
EXTT1=
EXTT2=
EXTT3=
EXTT4=
EXTT5=
EXTT6=
EXTT7=
EXTT8=
EXTT9=
EXTT10=
EXTT11=
EXTT12=
EXTT13=
EXTT14=
EXTT15=
EXTT16=
EXTT17=
EXTT18=
EXTT19=
EXTT20=
EXTT21=
EXTT22=
EXTT23=
EXTT24=
EXTT25=
PLAYORDER=
